<!--?xml version="1.0" encoding="utf-8"?-->
<!-- Generator: Adobe Illustrator 19.1.1, SVG Export Plug-In . SVG Version: 6.00 Build 0)  -->
<svg version="1.1" id="_x31_0" xmlns="http://www.w3.org/2000/svg" xmlns:xlink="http://www.w3.org/1999/xlink" x="0px" y="0px" viewBox="0 0 512 512" style="width: 512px; height: 512px;" xml:space="preserve">
<style type="text/css">
	.st0{fill:#374149;}
</style>
<g>
	<path class="st0" d="M359.519,231.68c43.68,0,79.122-35.442,79.122-79.122c0-43.598-35.442-79.117-79.122-79.117
		c-43.602,0-79.038,35.519-79.038,79.117C280.481,196.238,315.918,231.68,359.519,231.68z M353.438,95.84l6.082,0.398l1.36,2.801
		c0.558,1.679,2.238,6.641-21.68,30.48c-19.359,19.36-26.242,22-29.039,22c-0.641,0-1.121-0.16-1.442-0.238l-2.32-0.801
		l-0.801-3.039l-0.078-3.684C305.519,117.359,327.039,95.84,353.438,95.84z"></path>
	<path class="st0" d="M152.558,280.481c-43.679,0-79.121,35.441-79.121,79.121c0,43.598,35.442,79.117,79.121,79.117
		c43.52,0,79.122-35.519,79.122-79.117C231.68,315.922,196.078,280.481,152.558,280.481z M134.801,340.078
		C115.438,359.442,108.481,362,105.68,362c-0.641,0-1.039-0.16-1.36-0.242l-2.32-0.797l-0.883-3.039v-3.602
		c0-26.48,21.442-48,47.84-48l6.16,0.398l1.364,2.883C156.957,311.199,158.641,316.16,134.801,340.078z"></path>
	<path class="st0" d="M359.598,438.718c43.602,0,79.121-35.519,79.121-79.117c0-43.68-35.519-79.203-79.121-79.203
		c-43.598,0-79.117,35.523-79.117,79.203C280.481,403.199,316,438.718,359.598,438.718z M359.598,306.801
		c29.121,0,52.722,23.758,52.722,52.801c0,29.117-23.602,52.718-52.722,52.718c-29.039,0-52.797-23.602-52.797-52.718
		C306.801,330.558,330.558,306.801,359.598,306.801z"></path>
	<path class="st0" d="M152.641,231.758c43.438,0,78.957-35.519,78.957-79.199c0-43.598-35.519-79.117-78.957-79.117
		c-43.762,0-79.203,35.519-79.203,79.117C73.438,196.238,108.879,231.758,152.641,231.758z M152.641,99.84
		c28.957,0,52.558,23.602,52.558,52.718c0,29.043-23.602,52.801-52.558,52.801c-29.282,0-52.801-23.758-52.801-52.801
		C99.84,123.442,123.359,99.84,152.641,99.84z"></path>
	<path class="st0" d="M495.199,0H16.879C7.598,0,0,7.602,0,16.879v478.32C0,504.481,7.598,512,16.879,512h478.32
		c9.282,0,16.801-7.519,16.801-16.801V16.879C512,7.602,504.481,0,495.199,0z M249.519,456.258l-0.003,0.383H56.621h-1.023v-194
		h177.442c9.039,0,16.48,7.359,16.48,16.48V456.258z M249.519,233.039c0,9.039-7.441,16.48-16.48,16.48H55.981h-0.383V55.68h193.922
		V233.039z M456.481,456.207l-0.004,0.434H263.742h-1.024v-177.52c0-9.121,7.282-16.48,16.398-16.48h177.364V456.207z
		 M456.481,249.09l-0.004,0.43h-177.36c-9.117,0-16.398-7.441-16.398-16.48V55.68h193.762V249.09z"></path>
</g>
</svg>
